<mxfile host="app.diagrams.net" modified="2024-01-24T02:33:39.238Z" agent="Mozilla/5.0 (Windows NT 10.0; Win64; x64) AppleWebKit/537.36 (KHTML, like Gecko) Chrome/120.0.0.0 Safari/537.36" version="22.1.20" etag="n4wofH22pRDFdWxHGcjJ" type="github">
  <diagram name="第 1 页" id="xPjWMKmzNRKZ_0EDPygm">
    <mxGraphModel>
      <root>
        <mxCell id="0" />
        <mxCell id="1" parent="0" />
      </root>
    </mxGraphModel>
  </diagram>
</mxfile>
